<?xml version="1.0" encoding="UTF-8"?>
<svg version="1.1" xmlns="http://www.w3.org/2000/svg" width="478" height="475">
<path d="M0 0 C1.08462825 -0.01080678 1.08462825 -0.01080678 2.19116819 -0.02183187 C4.62070574 -0.04460138 7.05023316 -0.06013833 9.47982788 -0.07553101 C11.21934254 -0.08997921 12.95885465 -0.10473685 14.69836426 -0.11978149 C30.58095522 -0.25006888 46.464249 -0.31592601 62.34726906 -0.36762428 C74.08607346 -0.40653112 85.82391824 -0.47488366 97.56230128 -0.58217204 C105.81804487 -0.65508069 114.07352634 -0.69346788 122.32957876 -0.70665014 C127.25939299 -0.71550731 132.18802055 -0.73969412 137.11748123 -0.80131912 C141.75871337 -0.85868153 146.39815061 -0.87320635 151.0396843 -0.85544586 C152.73884865 -0.85632226 154.438088 -0.87250504 156.13693237 -0.90549088 C170.54224556 -1.17057328 170.54224556 -1.17057328 176.33685303 4.3706665 C178.3495636 6.8549881 178.3495636 6.8549881 179.94223022 9.18081665 C180.61353973 10.14504547 181.28484924 11.10927429 181.97650146 12.10272217 C183.37637262 16.56457094 183.39285886 20.77809587 183.39389038 25.43032837 C183.40557251 26.44913589 183.41725464 27.46794342 183.42929077 28.5176239 C183.46284659 31.88201357 183.47361422 35.24596188 183.48129272 38.61050415 C183.49348226 40.96256664 183.50596856 43.3146276 183.51873779 45.66668701 C183.54121217 50.60111973 183.55076707 55.53539813 183.55307007 60.46987915 C183.55833159 66.75526701 183.60953134 73.0393473 183.67258644 79.32438469 C183.71371727 84.18728528 183.7227143 89.04987834 183.72318649 93.91293716 C183.72853188 96.22753519 183.7452246 98.5421387 183.77403641 100.85656357 C183.93548002 115.01398742 182.84536897 125.72305428 175.94223022 138.18081665 C175.0416523 140.06610643 174.14986601 141.9556743 173.27426147 143.85269165 C151.65749444 187.85583675 120.10651092 231.18143303 80.94223022 261.18081665 C79.77288045 262.1241148 78.60642369 263.0710058 77.44223022 264.0206604 C63.00630218 275.77910763 48.05936144 285.84769003 31.94223022 295.18081665 C31.17862183 295.62457642 30.41501343 296.06833618 29.62826538 296.52554321 C19.56919177 302.33843176 9.32673335 307.75221273 -1.27651978 312.50894165 C-4.90449778 314.14921262 -8.40385848 315.90031077 -11.88735962 317.82583618 C-32.46546872 328.3877591 -54.82894906 326.47654199 -77.34646606 326.10061646 C-81.74326369 326.04044923 -86.13948217 326.03336723 -90.53663731 326.02746391 C-94.79625441 326.01859919 -99.05547819 325.9879945 -103.31492424 325.94971085 C-105.33739982 325.93205501 -107.35991627 325.91854295 -109.3824482 325.9093895 C-112.19754581 325.89121845 -115.01095665 325.8463984 -117.82559204 325.79360962 C-119.05601479 325.7916156 -119.05601479 325.7916156 -120.31129456 325.7895813 C-128.85233433 325.56949207 -134.90561224 321.89353437 -141.05776978 316.18081665 C-145.55915013 309.42874612 -144.19935442 300.22666804 -144.18716431 292.41226196 C-144.18852115 291.01663162 -144.19030268 289.62100163 -144.19247437 288.22537231 C-144.19702343 284.44309387 -144.19526728 280.66084279 -144.19209528 276.87856388 C-144.18954859 272.89001967 -144.19191654 268.90147767 -144.19348145 264.91293335 C-144.19530064 258.19460638 -144.19290777 251.47629039 -144.18814087 244.75796509 C-144.18274306 237.06314676 -144.18442892 229.36835513 -144.18996727 221.67353749 C-144.19455906 215.02079777 -144.19511848 208.36806592 -144.19252861 201.71532512 C-144.19099296 197.76360437 -144.19069446 193.81189597 -144.19406509 189.86017609 C-144.20011643 181.29124117 -144.17997203 172.72327856 -144.09632111 164.15470886 C-144.07057643 161.50093332 -144.04977503 158.8471053 -144.03386688 156.19325256 C-144.00335437 152.4521152 -143.93843792 148.71325553 -143.86196899 144.97280884 C-143.85676302 143.87539997 -143.85155704 142.7779911 -143.84619331 141.64732742 C-143.65627547 134.84272023 -142.63496449 131.28287748 -138.05776978 126.18081665 C-136.03042603 124.43862915 -136.03042603 124.43862915 -134.12026978 123.30581665 C-133.17860962 122.72187134 -133.17860962 122.72187134 -132.21792603 122.12612915 C-126.52658013 119.63552209 -120.10580581 119.97383668 -114.00308228 119.8644104 C-112.51121651 119.83317078 -112.51121651 119.83317078 -110.98921204 119.80130005 C-107.72047645 119.73506331 -104.45166283 119.67622491 -101.18276978 119.61831665 C-100.06759979 119.59713776 -98.95242981 119.57595886 -97.8034668 119.55413818 C-73.5548146 119.09729362 -49.30970012 119.07382042 -25.05776978 119.18081665 C-25.06300659 118.08060181 -25.06824341 116.98038696 -25.07363892 115.84683228 C-25.1190862 105.14472301 -25.12129662 94.44319486 -25.08564758 83.74104309 C-25.0659252 77.72165853 -25.05823272 71.70266641 -25.07241821 65.68325806 C-25.08530307 59.35620861 -25.06103462 53.03015387 -25.01403809 46.70327759 C-25.00159438 44.24351088 -25.00123561 41.78365133 -25.0133667 39.32388306 C-25.11400628 15.77221952 -25.11400628 15.77221952 -18.92227173 7.98477173 C-12.98794722 2.24315541 -8.32203942 0.06902609 0 0 Z " fill="#E4102E" transform="translate(160.05776977539063,14.819183349609375)"/>
<path d="M0 0 C0.69508163 0.01123901 1.39016327 0.02247803 2.10630798 0.03405762 C3.21181755 0.02836258 3.21181755 0.02836258 4.33966064 0.02255249 C6.78037374 0.01513396 9.21989947 0.03655821 11.6605072 0.05895996 C13.36101644 0.06134527 15.06152835 0.06224952 16.76203918 0.06173706 C20.33155252 0.06486804 23.90066507 0.08144663 27.47007751 0.10827637 C32.02609221 0.14210189 36.58166325 0.14990934 41.13778877 0.148386 C44.65360179 0.1489326 48.16931946 0.15994849 51.68510056 0.17438889 C53.36347101 0.18071844 55.04185219 0.1846867 56.72023392 0.1861763 C80.3777198 0.23012613 80.3777198 0.23012613 88.8401947 8.51989746 C96.05012367 18.19638108 95.1464329 30.85529202 95.16246033 42.40515137 C95.17173752 43.97836257 95.18178958 45.55156936 95.19255066 47.12477112 C95.21858398 51.36632283 95.23164358 55.6078116 95.24057198 59.84943056 C95.24646238 62.50442996 95.25467676 65.15941265 95.26358032 67.81440353 C95.29086032 76.13684359 95.31023328 84.45924485 95.3179841 92.78172648 C95.32695869 102.36221938 95.36214468 111.94214347 95.41998529 121.52246344 C95.46326454 128.95037701 95.48339471 136.37813065 95.48606634 143.80616891 C95.48815722 148.23366998 95.49986188 152.66063378 95.53570557 157.08800125 C95.56875254 161.24979332 95.57293869 165.41064628 95.55542755 169.57252312 C95.55389184 171.09425696 95.56250628 172.61604232 95.58234406 174.13764763 C95.69287595 183.14779736 95.03452796 189.58351713 88.8401947 196.51989746 C88.25910194 197.21325006 87.67800919 197.90660267 87.07930756 198.62096596 C82.47023474 204.07609382 77.39583107 205.12267288 70.40789795 205.73197937 C67.79190956 205.84470791 65.18105431 205.90072925 62.56285095 205.93395996 C61.57798706 205.95337143 60.59312317 205.9727829 59.57841492 205.99278259 C56.35326177 206.05314382 53.12809063 206.09950787 49.9026947 206.14489746 C47.65423586 206.18292909 45.40578212 206.22126371 43.15733337 206.2598877 C19.38627596 206.64257555 -4.38655135 206.61968832 -28.1598053 206.51989746 C-28.15456848 207.73604736 -28.14933167 208.95219727 -28.14393616 210.2052002 C-28.09911592 221.88992207 -28.10086723 233.57387755 -28.14099121 245.25862122 C-28.16384737 252.93280808 -28.13859998 260.60532455 -28.08581543 268.27934265 C-28.05983205 273.45477031 -28.07247462 278.62965584 -28.09367371 283.80508423 C-28.09608486 286.31299266 -28.0827664 288.82096801 -28.05332947 291.32870483 C-28.01448739 294.86392331 -28.03209599 298.39483944 -28.06214905 301.93005371 C-28.03757629 302.9718277 -28.01300354 304.01360168 -27.98768616 305.08694458 C-28.10663095 311.1206049 -29.18029252 314.19953003 -33.42762756 318.5880127 C-40.47856125 325.01732487 -48.13768526 327.63983245 -57.55836487 327.65361023 C-58.87595795 327.65787521 -60.19355103 327.6621402 -61.55107117 327.66653442 C-63.00984195 327.66618491 -64.46861271 327.66572337 -65.92738342 327.66516113 C-67.4651345 327.66815373 -69.00288482 327.67155649 -70.54063416 327.67533875 C-74.71875973 327.68417712 -78.89686483 327.68651692 -83.07499886 327.68715453 C-85.68893776 327.68786563 -88.30287147 327.6900012 -90.91680908 327.69265175 C-100.04696482 327.70190774 -109.17710596 327.70598671 -118.30726624 327.7052002 C-126.79815811 327.70460075 -135.28898618 327.71512561 -143.77986193 327.73094386 C-151.08198357 327.74405926 -158.38408447 327.74938235 -165.68621778 327.74874479 C-170.04161794 327.74849078 -174.3969615 327.75128723 -178.75234985 327.76192284 C-182.85635469 327.77167017 -186.96024965 327.77163795 -191.06425858 327.7644062 C-192.56212654 327.76336825 -194.06000158 327.76567578 -195.55785751 327.77176666 C-219.66967025 327.86338028 -219.66967025 327.86338028 -227.53871155 321.17224121 C-232.19028027 316.43100369 -234.2222829 311.85443608 -234.47401428 305.20056152 C-234.53650108 303.56181061 -234.53650108 303.56181061 -234.60025024 301.88995361 C-234.6587339 300.10576019 -234.6587339 300.10576019 -234.71839905 298.28552246 C-234.76065109 297.04433655 -234.80290314 295.80315063 -234.84643555 294.52435303 C-235.29448258 280.10738022 -235.26978987 265.69266567 -235.2223053 251.26989746 C-235.21667843 248.55505519 -235.21264051 245.84021129 -235.20863342 243.12536621 C-235.19781224 236.59018913 -235.18124174 230.05504792 -235.1598053 223.51989746 C-234.10374084 223.16435791 -233.04767639 222.80881836 -231.95960999 222.44250488 C-222.15530512 219.09275073 -212.76685766 215.2974727 -203.4098053 210.83239746 C-202.10472729 210.21533804 -200.7996326 209.59831391 -199.49452209 208.98132324 C-170.05529751 195.00553296 -143.09600563 178.61114475 -118.1598053 157.51989746 C-117.21621155 156.76063965 -116.2726178 156.00138184 -115.3004303 155.21911621 C-106.6460271 148.15830384 -98.75399291 140.33052634 -90.8473053 132.45739746 C-90.28768097 131.90294952 -89.72805664 131.34850159 -89.151474 130.7772522 C-82.014942 123.69275728 -75.39130807 116.42993551 -69.1598053 108.51989746 C-68.13509061 107.26514164 -67.10805957 106.01227059 -66.07777405 104.76208496 C-43.3965563 76.90632156 -26.1195496 46.06231992 -11.97840881 13.10021973 C-11.28896179 11.50005005 -11.28896179 11.50005005 -10.58558655 9.86755371 C-10.18766907 8.92919678 -9.78975159 7.99083984 -9.379776 7.02404785 C-6.98452076 2.1074713 -5.83692998 0.07662802 0 0 Z " fill="#018ACC" transform="translate(372.15980529785156,134.4801025390625)"/>
<path d="M0 0 C0.70227219 0.00045319 1.40454437 0.00090637 2.12809753 0.00137329 C3.23316902 -0.00366463 3.23316902 -0.00366463 4.36056519 -0.00880432 C6.8117387 -0.01835057 9.26284405 -0.02025995 11.71403503 -0.02133179 C13.41740446 -0.02454429 15.12077361 -0.02790835 16.82414246 -0.03141785 C20.40544778 -0.03742 23.98672894 -0.03925688 27.56803894 -0.03866577 C32.13975892 -0.03856465 36.71132185 -0.05216016 41.28300476 -0.06943798 C44.80736489 -0.08060813 48.33168783 -0.08258336 51.85606384 -0.08205605 C53.54002926 -0.08323079 55.2239958 -0.08762401 56.90794373 -0.09538841 C80.57442893 -0.19420167 80.57442893 -0.19420167 89.08903503 8.14663696 C96.298964 17.82312058 95.39527323 30.48203152 95.41130066 42.03189087 C95.42057785 43.60510207 95.43062991 45.17830887 95.44139099 46.75151062 C95.46742431 50.99306234 95.48048392 55.2345511 95.48941231 59.47617006 C95.49530272 62.13116946 95.50351709 64.78615215 95.51242065 67.44114304 C95.53970066 75.76358309 95.55907361 84.08598435 95.56682444 92.40846598 C95.57579902 101.98895888 95.61098501 111.56888297 95.66882563 121.14920294 C95.71210487 128.57711651 95.73223504 136.00487015 95.73490667 143.43290842 C95.73699756 147.86040948 95.74870221 152.28737329 95.7845459 156.71474075 C95.81759287 160.87653282 95.82177902 165.03738578 95.80426788 169.19926262 C95.80273217 170.72099646 95.81134661 172.24278182 95.83118439 173.76438713 C95.94131408 182.74175013 95.30822945 189.24173351 89.08903503 196.14663696 C88.41356628 196.93038696 87.73809753 197.71413696 87.04216003 198.52163696 C86.48012878 199.05788696 85.91809753 199.59413696 85.33903503 200.14663696 C84.76669128 200.70351196 84.19434753 201.26038696 83.60466003 201.83413696 C80.52036333 204.50507432 78.05590948 204.23287336 74.08903503 204.14663696 C75.39427404 201.53615896 76.44730078 201.46597273 79.15153503 200.52163696 C79.8850116 200.26124634 80.61848816 200.00085571 81.37419128 199.73257446 C81.94008972 199.53921509 82.50598816 199.34585571 83.08903503 199.14663696 C83.08903503 198.15663696 83.08903503 197.16663696 83.08903503 196.14663696 C84.40903503 196.14663696 85.72903503 196.14663696 87.08903503 196.14663696 C87.23341003 195.17726196 87.37778503 194.20788696 87.52653503 193.20913696 C88.08903503 190.14663696 88.08903503 190.14663696 89.08903503 189.14663696 C89.16350118 187.74220545 89.17233414 186.33413747 89.15153503 184.92788696 C89.13993347 183.65364868 89.13993347 183.65364868 89.12809753 182.35366821 C89.1087616 181.01368774 89.1087616 181.01368774 89.08903503 179.64663696 C89.06363306 177.88628029 89.04256357 176.12585393 89.02653503 174.36538696 C89.01493347 173.58099243 89.00333191 172.7965979 88.99137878 171.98843384 C89.08903503 170.14663696 89.08903503 170.14663696 90.08903503 169.14663696 C90.24122206 167.80982477 90.32721952 166.46540199 90.38615417 165.12124634 C90.42608994 164.24404434 90.4660257 163.36684235 90.50717163 162.46305847 C90.54578812 161.48207687 90.5844046 160.50109528 90.62419128 159.49038696 C90.68906487 157.92314125 90.68906487 157.92314125 90.75524902 156.32423401 C90.89662998 152.765318 91.02610432 149.20615016 91.15153503 145.64663696 C91.19506104 144.41631744 91.23858704 143.18599792 91.28343201 141.918396 C92.1356798 116.81780242 92.37366724 91.71317497 92.451931 66.5994873 C92.46402491 63.58665788 92.48364206 60.57396226 92.50532532 57.56118774 C92.53868576 52.76157906 92.55102186 47.96234928 92.54749107 43.16263008 C92.54912509 41.37983881 92.55738858 39.59703934 92.57279396 37.81431389 C92.88120884 25.86407071 92.88120884 25.86407071 88.9478302 14.76469421 C88.08903503 13.14663696 88.08903503 13.14663696 88.08903503 10.14663696 C87.09903503 10.14663696 86.10903503 10.14663696 85.08903503 10.14663696 C83.40153503 8.77163696 83.40153503 8.77163696 82.08903503 7.14663696 C82.08903503 6.48663696 82.08903503 5.82663696 82.08903503 5.14663696 C81.1789267 5.14885757 80.26881836 5.15107819 79.33113098 5.15336609 C70.76695908 5.17337787 62.202795 5.18861564 53.63860512 5.19844913 C49.23535289 5.20367451 44.83211992 5.21076594 40.42887878 5.22207642 C36.18194259 5.23291751 31.93502498 5.2389164 27.68807602 5.24151421 C26.06531354 5.24336624 24.44255212 5.24698264 22.81979752 5.25236702 C20.55226165 5.25959365 18.28480317 5.26062721 16.01725769 5.26016235 C14.72486176 5.26238297 13.43246582 5.26460358 12.10090637 5.26689148 C9.08903503 5.14663696 9.08903503 5.14663696 7.08903503 4.14663696 C5.01338827 3.94905466 5.01338827 3.94905466 2.71403503 3.95913696 C1.94317566 3.94495728 1.17231628 3.93077759 0.37809753 3.91616821 C-2.17033214 4.17275072 -3.75761463 4.77327797 -5.91096497 6.14663696 C-6.71625386 8.19664567 -6.71625386 8.19664567 -6.91096497 10.14663696 C-7.57096497 10.14663696 -8.23096497 10.14663696 -8.91096497 10.14663696 C-9.19971497 11.17788696 -9.48846497 12.20913696 -9.78596497 13.27163696 C-10.73405294 16.59671694 -11.7935309 19.87415149 -12.91096497 23.14663696 C-13.57096497 22.81663696 -14.23096497 22.48663696 -14.91096497 22.14663696 C-8.283632 0.05552709 -8.283632 0.05552709 0 0 Z " fill="#3D8FC8" transform="translate(371.9109649658203,134.85336303710938)"/>
<path d="M0 0 C0 0.66 0 1.32 0 2 C-0.99 2 -1.98 2 -3 2 C-3 3.32 -3 4.64 -3 6 C-3.804375 6.28875 -4.60875 6.5775 -5.4375 6.875 C-8.1326468 7.73262568 -8.1326468 7.73262568 -9 10 C-9.66 10 -10.32 10 -11 10 C-11.144375 10.804375 -11.28875 11.60875 -11.4375 12.4375 C-12 15 -12 15 -13 16 C-13.10083173 17.33151931 -13.13350083 18.66829234 -13.13803101 20.00361633 C-13.14348434 20.86586823 -13.14893768 21.72812012 -13.15455627 22.61650085 C-13.1555986 23.56974747 -13.15664093 24.52299408 -13.15771484 25.50512695 C-13.16279556 26.50346558 -13.16787628 27.5018042 -13.17311096 28.53039551 C-13.18384092 30.70647099 -13.19245072 32.88255769 -13.19923019 35.05864906 C-13.21097816 38.50019303 -13.23042044 41.94160916 -13.25234985 45.38310242 C-13.31410304 55.17096722 -13.36803522 64.95882016 -13.40136719 74.74682617 C-13.42228194 80.72623245 -13.45756229 86.7054081 -13.50212479 92.68468285 C-13.51631358 94.96724931 -13.52501368 97.24985661 -13.52817917 99.53246498 C-13.53307331 102.72411943 -13.55619383 105.91515931 -13.58349609 109.10668945 C-13.57898689 110.52745033 -13.57898689 110.52745033 -13.5743866 111.97691345 C-13.59102608 113.2829805 -13.59102608 113.2829805 -13.60800171 114.61543274 C-13.61131186 115.37000417 -13.614622 116.1245756 -13.61803246 116.90201283 C-14.12084666 119.66375989 -15.02283482 121.01773848 -17 123 C-19.04464626 123.49942875 -19.04464626 123.49942875 -21.4339447 123.49879456 C-22.34101669 123.50837189 -23.24808868 123.51794922 -24.18264771 123.52781677 C-25.67186234 123.51320152 -25.67186234 123.51320152 -27.19116211 123.49829102 C-28.23856064 123.50380981 -29.28595917 123.50932861 -30.36509705 123.51501465 C-32.64207521 123.52434977 -34.91910557 123.52442742 -37.19608879 123.51642036 C-40.79762357 123.50383539 -44.3983869 123.51503912 -47.99989319 123.53245544 C-54.34582015 123.55921093 -60.69155935 123.56474906 -67.03753662 123.56335449 C-77.19234895 123.56112955 -87.34692883 123.5751524 -97.50164986 123.61894035 C-101.05370819 123.62880589 -104.60540436 123.62004663 -108.15745544 123.61024475 C-110.33145386 123.61638756 -112.50545028 123.62329882 -114.67944336 123.63110352 C-116.16562164 123.61952461 -116.16562164 123.61952461 -117.68182373 123.60771179 C-119.04666145 123.61784805 -119.04666145 123.61784805 -120.43907166 123.62818909 C-121.62233992 123.62730962 -121.62233992 123.62730962 -122.8295126 123.62641239 C-125.53198823 124.09156663 -126.94570725 125.23101823 -129 127 C-127.53848071 123.14690368 -125.68722565 121.75981224 -122 120 C-116.67506563 118.82287158 -111.37305532 118.78091714 -105.9453125 118.68359375 C-104.45344673 118.65235413 -104.45344673 118.65235413 -102.93144226 118.6204834 C-99.66270667 118.55424666 -96.39389306 118.49540826 -93.125 118.4375 C-92.00983002 118.41632111 -90.89466003 118.39514221 -89.74569702 118.37332153 C-65.49704483 117.91647697 -41.25193034 117.89300377 -17 118 C-17.00523682 116.89978516 -17.01047363 115.79957031 -17.01586914 114.66601562 C-17.06131642 103.96390636 -17.06352684 93.26237821 -17.02787781 82.56022644 C-17.00815542 76.54084188 -17.00046295 70.52184976 -17.01464844 64.50244141 C-17.0275333 58.17539196 -17.00326485 51.84933722 -16.95626831 45.52246094 C-16.9438246 43.06269423 -16.94346583 40.60283468 -16.95559692 38.14306641 C-17.05623496 14.59176415 -17.05623496 14.59176415 -10.87060547 6.81005859 C-3.83274885 0 -3.83274885 0 0 0 Z " fill="#E35767" transform="translate(152,16)"/>
<path d="M0 0 C3 2 3 2 4 5.0625 C4.33 6.031875 4.66 7.00125 5 8 C5.99 8.33 6.98 8.66 8 9 C8 9.66 8 10.32 8 11 C8.66 11 9.32 11 10 11 C10 11.99 10 12.98 10 14 C33.02615339 13.89285195 56.05227327 13.78010703 79.07836628 13.66066074 C89.76927401 13.60533353 100.46018507 13.55185234 111.15112305 13.50268555 C120.46706998 13.45983758 129.78299239 13.41355802 139.09890145 13.36312145 C144.03363696 13.33652547 148.96836763 13.31167248 153.90313148 13.29092598 C158.54465758 13.27135815 163.18613702 13.24721387 167.82762146 13.21950912 C169.53405092 13.21013948 171.24049061 13.20246388 172.94693565 13.19658089 C175.27121915 13.18831826 177.59538946 13.17404112 179.91963196 13.15821838 C181.87337219 13.14853956 181.87337219 13.14853956 183.86658192 13.1386652 C187.03060916 13.14200635 187.03060916 13.14200635 190 12 C190.33 11.34 190.66 10.68 191 10 C193.5625 9.375 193.5625 9.375 196 9 C196.33 7.02 196.66 5.04 197 3 C198.98 2.34 200.96 1.68 203 1 C202.11928488 6.48000519 198.13732147 9.61933631 194 13 C187.66442776 16.63363702 181.87674921 18.1230726 174.60144043 18.13371277 C173.28384735 18.13797775 171.96625427 18.14224274 170.60873413 18.14663696 C169.14996335 18.14628745 167.69119259 18.14582591 166.23242188 18.14526367 C164.6946708 18.14825627 163.15692048 18.15165903 161.61917114 18.15544128 C157.44104556 18.16427966 153.26294047 18.16661946 149.08480644 18.16725707 C146.47086754 18.16796817 143.85693383 18.17010374 141.24299622 18.17275429 C132.11284048 18.18201028 122.98269934 18.18608924 113.85253906 18.18530273 C105.36164719 18.18470329 96.87081912 18.19522815 88.37994337 18.2110464 C81.07782173 18.2241618 73.77572083 18.22948489 66.47358751 18.22884732 C62.11818736 18.22859332 57.7628438 18.23138976 53.40745544 18.24202538 C49.30345061 18.25177271 45.19955564 18.25174049 41.09554672 18.24450874 C39.59767876 18.24347078 38.09980372 18.24577832 36.60194778 18.2518692 C12.45085308 18.34363207 12.45085308 18.34363207 4.62890625 11.6484375 C2.20707811 9.19757065 0.55055665 7.1011133 -1 4 C-0.75 1.625 -0.75 1.625 0 0 Z " fill="#3C97D2" transform="translate(140,444)"/>
<path d="M0 0 C0.96647964 0.00960754 1.93295929 0.01921509 2.9287262 0.02911377 C6.11027582 0.06198712 9.29168309 0.1023637 12.47314453 0.14282227 C14.68416854 0.16713478 16.89519776 0.19097777 19.10623169 0.21437073 C24.91607614 0.277099 30.72582797 0.34619744 36.5355835 0.41662598 C42.46785273 0.48741121 48.40018745 0.55216715 54.33251953 0.61743164 C65.96540401 0.74629885 77.59819955 0.88189634 89.23095703 1.02172852 C89.23095703 2.01172852 89.23095703 3.00172852 89.23095703 4.02172852 C88.67804111 4.02411687 88.1251252 4.02650522 87.55545425 4.02896595 C74.10146143 4.08810331 60.64765014 4.1638342 47.19385147 4.25744343 C40.68767785 4.3022098 34.18156776 4.3414522 27.67529297 4.36816406 C21.39877152 4.39413433 15.12249374 4.43449242 8.84612274 4.48491478 C6.44912492 4.50162597 4.05208491 4.51311368 1.65503693 4.51934242 C-1.69719615 4.52893711 -5.04879979 4.55694162 -8.40087891 4.58935547 C-9.39637756 4.58792038 -10.39187622 4.58648529 -11.4175415 4.58500671 C-12.78888245 4.60381393 -12.78888245 4.60381393 -14.18792725 4.6230011 C-15.3770402 4.62991455 -15.3770402 4.62991455 -16.59017563 4.63696766 C-19.29195123 5.11406761 -20.71283586 6.25181315 -22.76904297 8.02172852 C-21.30752368 4.1686322 -19.45626862 2.78154076 -15.76904297 1.02172852 C-10.50187591 -0.17238819 -5.36502086 -0.07681859 0 0 Z " fill="#EF3045" transform="translate(45.76904296875,134.978271484375)"/>
<path d="M0 0 C1.24306664 0.00849724 1.24306664 0.00849724 2.51124573 0.01716614 C3.86962555 0.04197807 3.86962555 0.04197807 5.25544739 0.06729126 C6.68987938 0.08148354 6.68987938 0.08148354 8.15328979 0.09596252 C11.31880144 0.12968 14.48392463 0.17778473 17.64924622 0.22598267 C19.84213237 0.25214567 22.03502938 0.277413 24.22793579 0.30181885 C30.00337952 0.3685101 35.77859537 0.4473944 41.55384827 0.52877808 C47.44558456 0.60965874 53.33745464 0.6790634 59.22932434 0.74942017 C70.79263579 0.88920007 82.35573902 1.04185536 93.91877747 1.20254517 C93.91877747 1.53254517 93.91877747 1.86254517 93.91877747 2.20254517 C45.40877747 2.69754517 45.40877747 2.69754517 -4.08122253 3.20254517 C-4.06059753 10.50379517 -4.03997253 17.80504517 -4.01872253 25.32754517 C-4.00476479 43.77179756 -4.10464675 62.21281469 -4.39961243 80.65487671 C-4.43737213 83.06290748 -4.47177218 85.47099325 -4.50282288 87.87911987 C-4.54761223 91.24889929 -4.60538291 94.61819613 -4.66716003 97.98770142 C-4.67871628 98.99679062 -4.69027252 100.00587982 -4.70217896 101.04554749 C-4.72204361 101.96368729 -4.74190826 102.88182709 -4.76237488 103.82778931 C-4.77569855 104.62882584 -4.78902222 105.42986237 -4.80274963 106.25517273 C-5.08122253 108.20254517 -5.08122253 108.20254517 -7.08122253 110.20254517 C-8.40122253 110.20254517 -9.72122253 110.20254517 -11.08122253 110.20254517 C-11.41122253 112.18254517 -11.74122253 114.16254517 -12.08122253 116.20254517 C-14.06122253 116.69754517 -14.06122253 116.69754517 -16.08122253 117.20254517 C-15.48728871 115.90614139 -14.88064264 114.61555678 -14.26872253 113.32754517 C-13.76405457 112.24859985 -13.76405457 112.24859985 -13.24919128 111.14785767 C-12.08122253 109.20254517 -12.08122253 109.20254517 -9.08122253 107.20254517 C-5.79471177 98.25414671 -6.81832482 87.66781054 -6.89372253 78.26504517 C-6.89995572 76.5246496 -6.9057238 74.78425232 -6.91105652 73.04385376 C-6.95508419 63.40817749 -7.11549074 53.77685561 -7.34684753 44.14395142 C-7.37062973 43.15296951 -7.39441193 42.16198761 -7.41891479 41.14097595 C-7.53733842 36.32648911 -7.66694851 31.51261377 -7.81291199 26.69888306 C-7.83774658 25.8041478 -7.86258118 24.90941254 -7.88816833 23.98756409 C-7.934162 22.332348 -7.98499456 20.67725467 -8.042099 19.02238464 C-8.35524763 7.2878701 -8.35524763 7.2878701 -7.08122253 2.20254517 C-4.00703711 0.15308822 -3.45044926 -0.04417989 0 0 Z " fill="#1174B3" transform="translate(348.0812225341797,336.7974548339844)"/>
<path d="M0 0 C1.32 0.33 2.64 0.66 4 1 C3.67 1.66 3.34 2.32 3 3 C3.14137894 3.55119507 3.28275787 4.10239014 3.42842102 4.67028809 C4.22039068 7.89829546 4.13560502 10.95240533 4.14526367 14.27539062 C4.15030159 15.36390572 4.15030159 15.36390572 4.15544128 16.47441101 C4.16492477 18.86837484 4.1668929 21.26226857 4.16796875 23.65625 C4.17118248 25.32246937 4.17454664 26.98868845 4.17805481 28.65490723 C4.18403908 32.14510757 4.18589536 35.63528317 4.18530273 39.12548828 C4.185201 43.59784617 4.19886798 48.0700457 4.21607494 52.54236603 C4.22719067 55.98244964 4.2292221 59.42249487 4.22869301 62.8625946 C4.2298732 64.5116175 4.23429718 66.16064139 4.24202538 67.80964661 C4.25181931 70.11474743 4.24895 72.41950303 4.24291992 74.72460938 C4.24434494 76.03602905 4.24576996 77.34744873 4.24723816 78.6986084 C4.01791335 81.76080155 3.62781689 83.44577444 2 86 C1.67 86 1.34 86 1 86 C0.11154102 66.59200091 -0.12625 47.23941163 -0.0625 27.8125 C-0.05687534 25.09310043 -0.05283602 22.37369924 -0.04882812 19.65429688 C-0.03799793 13.10284387 -0.02141957 6.55142652 0 0 Z " fill="#519AD0" transform="translate(137,358)"/>
<path d="M0 0 C0 3 0 3 -2.046875 5.15625 C-2.93890625 5.9296875 -3.8309375 6.703125 -4.75 7.5 C-5.63171875 8.2734375 -6.5134375 9.046875 -7.421875 9.84375 C-10 12 -10 12 -12.265625 13.53125 C-14.16591113 14.84854802 -14.16591113 14.84854802 -14.4765625 16.953125 C-15.24013982 19.93905424 -16.95555175 20.91779647 -19.375 22.75 C-20.16648438 23.36359375 -20.95796875 23.9771875 -21.7734375 24.609375 C-24 26 -24 26 -27 26 C-27.2784375 26.86625 -27.2784375 26.86625 -27.5625 27.75 C-29.27461074 30.4298255 -31.2197651 31.3967627 -33.98828125 32.859375 C-38.35361237 35.33447536 -42.45352891 38.45352891 -46 42 C-46.763125 42.12375 -47.52625 42.2475 -48.3125 42.375 C-51.66727731 43.15518077 -53.36204308 44.83552253 -56 47 C-58.3125 47.75 -58.3125 47.75 -60 48 C-60.33 46.68 -60.66 45.36 -61 44 C-59.45505859 43.12601562 -59.45505859 43.12601562 -57.87890625 42.234375 C-37.57334557 30.60368875 -16.63337404 16.63337404 0 0 Z " fill="#137DBA" transform="translate(262,285)"/>
<path d="M0 0 C0.33 0.99 0.66 1.98 1 3 C-5.4700029 10.15830109 -11.42923291 15.03121778 -21 17 C-23.10763214 17.08951181 -25.21792223 17.12197238 -27.32745361 17.12025452 C-28.62873199 17.12162918 -29.93001038 17.12300385 -31.27072144 17.12442017 C-32.71075463 17.12088122 -34.15078758 17.11724642 -35.59082031 17.11352539 C-37.10863239 17.11324329 -38.6264446 17.1134017 -40.14425659 17.1139679 C-44.263735 17.11425497 -48.38318433 17.10837267 -52.50265598 17.10139394 C-56.8081453 17.09514553 -61.11363527 17.09455542 -65.41912842 17.09336853 C-73.57175731 17.09025961 -81.72437281 17.08205212 -89.8769958 17.07201904 C-99.15865136 17.06084429 -108.44030756 17.05534402 -117.72196817 17.05032361 C-136.81465305 17.03986916 -155.90732545 17.02227819 -175 17 C-175 16.67 -175 16.34 -175 16 C-125.5 15.67 -76 15.34 -25 15 C-25 14.67 -25 14.34 -25 14 C-24.39671875 13.95101563 -23.7934375 13.90203125 -23.171875 13.8515625 C-22.37265625 13.77679688 -21.5734375 13.70203125 -20.75 13.625 C-19.96109375 13.55539062 -19.1721875 13.48578125 -18.359375 13.4140625 C-15.87914019 12.9787895 -14.14017625 12.31630309 -12 11 C-11.67 10.34 -11.34 9.68 -11 9 C-8.4375 8.375 -8.4375 8.375 -6 8 C-5.938125 7.05125 -5.87625 6.1025 -5.8125 5.125 C-5.544375 4.09375 -5.27625 3.0625 -5 2 C-2.4375 0.625 -2.4375 0.625 0 0 Z " fill="#59A7D4" transform="translate(342,445)"/>
<path d="M0 0 C22.92229423 -0.21038106 45.84442894 -0.36901759 68.76749325 -0.46630955 C79.4114862 -0.51268786 90.05487878 -0.57590037 100.69848633 -0.67895508 C109.97711851 -0.76875073 119.25531585 -0.82674525 128.53437048 -0.84679645 C133.44637841 -0.85851509 138.35714251 -0.88598976 143.26875114 -0.95157051 C147.89595378 -1.01285083 152.52140547 -1.03146713 157.14897537 -1.01796913 C158.84331481 -1.0204368 160.53771527 -1.03823057 162.2317028 -1.07284927 C174.99011916 -1.32070287 174.99011916 -1.32070287 179.99319649 1.96684456 C183.16203638 5.06918189 185.54687158 8.32030736 188 12 C187.67 12.99 187.34 13.98 187 15 C186.608125 14.278125 186.21625 13.55625 185.8125 12.8125 C182.88815219 8.27471892 179.12714899 3.85712529 173.75581837 2.38488865 C170.44704556 1.92277216 167.24883418 1.85894486 163.90690613 1.84178162 C163.20434655 1.83684364 162.50178697 1.83190566 161.77793771 1.82681805 C159.43032992 1.81149393 157.08274937 1.80309628 154.73510742 1.79467773 C153.04965985 1.78509521 151.36421466 1.77508491 149.67877197 1.76467896 C145.10691508 1.73766442 140.53504791 1.71663617 135.96315551 1.69667697 C131.18385813 1.67479613 126.40459233 1.6474177 121.62532043 1.62062073 C112.57672459 1.57072222 103.52811119 1.52577284 94.47948104 1.48259836 C84.17724279 1.4332017 73.87503624 1.37829258 63.57282865 1.32291877 C42.3819153 1.20914236 21.19097169 1.10229386 0 1 C0 0.67 0 0.34 0 0 Z " fill="#E5394F" transform="translate(154,15)"/>
<path d="M0 0 C0.80156151 2.8142263 1.11600867 5.27924861 1.08229065 8.20147705 C1.07525116 9.03156281 1.06821167 9.86164856 1.06095886 10.71688843 C1.04801285 11.6188797 1.03506683 12.52087097 1.02172852 13.45019531 C1.0073172 14.88484634 1.0073172 14.88484634 0.99261475 16.34848022 C0.95964544 19.50843719 0.91930506 22.66825501 0.87890625 25.828125 C0.85460312 28.0195873 0.83075966 30.21105474 0.80735779 32.40252686 C0.74453609 38.16965595 0.67546391 43.93669397 0.60510254 49.70373535 C0.53440189 55.58890639 0.46959527 61.47414198 0.40429688 67.359375 C0.27530917 78.90632095 0.13972006 90.45317928 0 102 C-0.99 102.495 -0.99 102.495 -2 103 C-2.04628366 90.01344658 -2.08184899 77.0269127 -2.10362434 64.04029369 C-2.11407394 58.01047547 -2.1282546 51.98071355 -2.15087891 45.95092773 C-2.17256533 40.13489031 -2.18455977 34.31890714 -2.18975449 28.50283241 C-2.1934578 26.28080707 -2.20068917 24.05878478 -2.21146011 21.83678246 C-2.22591914 18.73121024 -2.22798028 15.62586398 -2.22705078 12.52026367 C-2.23424133 11.59597565 -2.24143188 10.67168762 -2.24884033 9.71939087 C-2.246091 8.87385147 -2.24334167 8.02831207 -2.24050903 7.15715027 C-2.24235262 6.42248126 -2.24419621 5.68781225 -2.24609566 4.93088055 C-2 3 -2 3 0 0 Z " fill="#F23345" transform="translate(140,29)"/>
<path d="M0 0 C1.01153515 0.16238096 2.0230703 0.32476192 3.06525803 0.49206352 C6.75311647 0.96812977 10.24109134 1.12579801 13.95587158 1.12698364 C14.61971037 1.12854363 15.28354915 1.13010362 15.96750426 1.13171089 C18.17269528 1.13567182 20.37781639 1.13255035 22.58300781 1.12939453 C24.17208394 1.1307508 25.76115976 1.13253201 27.35023499 1.13470459 C31.65414867 1.13925351 35.95803831 1.13749942 40.2619524 1.1343255 C44.77715429 1.13178701 49.29235418 1.13414375 53.80755615 1.13571167 C61.39335498 1.13752976 68.97914406 1.13513727 76.56494141 1.13037109 C85.31435404 1.12493702 94.06374335 1.12668637 102.81315541 1.1321975 C110.34122137 1.13674827 117.86928033 1.13736934 125.39734721 1.13475883 C129.88623229 1.13320584 134.37510643 1.13297521 138.86399078 1.13629532 C143.08948281 1.13920233 147.31494505 1.13714673 151.54043388 1.13140106 C153.08387388 1.13008822 154.62731643 1.13044222 156.17075539 1.13266373 C164.4958611 1.14353338 172.72144804 0.96362385 181 0 C180.67 0.66 180.34 1.32 180 2 C176.59134205 3.13621932 173.9623581 3.14202168 170.36656189 3.16494751 C169.68910103 3.17059105 169.01164017 3.1762346 168.31365019 3.18204916 C166.03845304 3.19977954 163.76327731 3.21047254 161.48803711 3.22119141 C159.85851766 3.23240685 158.22900103 3.24403909 156.5994873 3.25605774 C152.16733733 3.28741659 147.73517204 3.3125274 143.30297542 3.3362546 C139.60061452 3.35667351 135.89827629 3.38021644 132.19593436 3.40379179 C123.45494536 3.45944129 114.7139374 3.51015157 105.97290039 3.55761719 C96.96789709 3.60658364 87.9629619 3.66289816 78.95802683 3.72303832 C71.22116505 3.77449949 63.48428573 3.82180793 55.74737746 3.86572587 C51.12934176 3.89195312 46.51132707 3.91962305 41.8933239 3.9510994 C37.54397892 3.9805257 33.19463467 4.00472005 28.84523773 4.02499962 C27.2546058 4.0332545 25.66398186 4.04328546 24.07337379 4.05528831 C15.99715151 4.11513063 8.01922707 4.08277377 0 3 C0 2.01 0 1.02 0 0 Z " fill="#1786C7" transform="translate(150,455)"/>
<path d="M0 0 C0.66 0.33 1.32 0.66 2 1 C-0.36292656 3.52588702 -1.66462511 4.88820837 -5 6 C-5.66 6.845625 -6.32 7.69125 -7 8.5625 C-7.66 9.366875 -8.32 10.17125 -9 11 C-9.99 11 -10.98 11 -12 11 C-12 11.66 -12 12.32 -12 13 C-13.2375 13.433125 -14.475 13.86625 -15.75 14.3125 C-18.95260284 15.50219929 -21.3073721 16.88436379 -24 19 C-25.33247514 19.33674753 -26.66597512 19.66944516 -28 20 C-30.5710871 21.04793123 -33.11522799 22.14799416 -35.66015625 23.2578125 C-38 24 -38 24 -41 23 C-44.3696818 24.15983833 -47.59519826 25.56745682 -50.87109375 26.96875 C-54.09246105 28.03047405 -54.92510719 27.96186608 -58 27 C-57.43531006 26.77562256 -56.87062012 26.55124512 -56.28881836 26.32006836 C-43.01732636 21.00803164 -30.04200144 15.24289439 -17.1875 9 C-16.50138641 8.66749237 -15.81527283 8.33498474 -15.10836792 7.99240112 C-7.36480247 4.33523403 -7.36480247 4.33523403 0 0 Z " fill="#1277BA" transform="translate(199,330)"/>
<path d="M0 0 C-5.18751058 6.57886275 -5.18751058 6.57886275 -9.65625 7.6171875 C-11.42137987 7.74399281 -13.19130918 7.81866548 -14.9609375 7.83203125 C-15.63382813 7.88746094 -16.30671875 7.94289063 -17 8 C-18.5295749 11.0591498 -17.50183549 13.66279531 -17 17 C-16.91363116 19.23556444 -16.87218091 21.47321756 -16.87060547 23.71044922 C-16.86745331 25.00224091 -16.86430115 26.29403259 -16.86105347 27.62496948 C-16.86284397 29.01820917 -16.8648951 30.41144855 -16.8671875 31.8046875 C-16.86651268 33.25285865 -16.86554117 34.70102968 -16.86428833 36.14920044 C-16.8628188 39.17678918 -16.86494126 42.20434831 -16.86962891 45.23193359 C-16.87531549 49.09048266 -16.87204923 52.94896198 -16.86605644 56.80750847 C-16.86242192 59.79656488 -16.86360281 62.78560509 -16.86618423 65.77466202 C-16.86684606 67.1962599 -16.86605146 68.61785931 -16.86370468 70.03945541 C-16.85416759 77.44146304 -16.98605682 84.66275677 -18 92 C-19.32 91.67 -20.64 91.34 -22 91 C-21.51251534 90.23459145 -21.51251534 90.23459145 -21.0151825 89.45372009 C-19.63838703 86.1259729 -19.75315926 83.34044007 -19.75708008 79.74047852 C-19.75518173 79.01640808 -19.75328339 78.29233765 -19.75132751 77.54632568 C-19.74762837 75.15707508 -19.75831307 72.76812977 -19.76953125 70.37890625 C-19.77072385 68.71508317 -19.77117604 67.0512594 -19.7709198 65.38743591 C-19.77248328 61.90139547 -19.78076154 58.41545792 -19.79418945 54.92944336 C-19.8111658 50.46618914 -19.81500403 46.00304808 -19.81424427 41.53976536 C-19.81451655 38.10392684 -19.82000734 34.66811295 -19.82724571 31.23228264 C-19.83042284 29.5868848 -19.83239755 27.94148419 -19.83313942 26.29608345 C-19.83531389 23.99364627 -19.84408234 21.69132761 -19.85473633 19.38891602 C-19.85854813 18.07971695 -19.86235992 16.77051788 -19.86628723 15.42164612 C-19.89442561 12.07286757 -19.89442561 12.07286757 -20.63407898 9.16319275 C-20.81520988 8.09241234 -20.81520988 8.09241234 -21 7 C-18.02380583 4.02380583 -14.42456111 3.18190761 -10.5 1.8125 C-9.71496094 1.52697266 -8.92992187 1.24144531 -8.12109375 0.94726562 C-6.99380859 0.54991211 -6.99380859 0.54991211 -5.84375 0.14453125 C-5.15474609 -0.09934326 -4.46574219 -0.34321777 -3.75585938 -0.59448242 C-2 -1 -2 -1 0 0 Z " fill="#1381C8" transform="translate(160,353)"/>
<path d="M0 0 C51.55219032 -0.19426561 51.55219032 -0.19426561 69 0.375 C70.09860352 0.40585693 71.19720703 0.43671387 72.32910156 0.46850586 C73.80588379 0.52663452 73.80588379 0.52663452 75.3125 0.5859375 C76.13363281 0.6173584 76.95476562 0.6487793 77.80078125 0.68115234 C80.2150187 1.03117389 81.85545419 1.87154135 84 3 C74.64691135 3.02313952 65.29383251 3.04092333 55.94072151 3.05181217 C51.5980033 3.05703746 47.25530462 3.06412873 42.91259766 3.07543945 C38.72401613 3.08628085 34.53545344 3.09227951 30.34685898 3.09487724 C28.74642515 3.09672922 27.1459924 3.10034552 25.54556656 3.10573006 C23.30916339 3.1129571 21.07283869 3.11399023 18.83642578 3.11352539 C17.56179474 3.115746 16.2871637 3.11796661 14.97390747 3.12025452 C12 3 12 3 10 2 C8.12620395 1.92966231 6.24998898 1.9156978 4.375 1.9375 C2.87066406 1.95103516 2.87066406 1.95103516 1.3359375 1.96484375 C0.17964844 1.98224609 0.17964844 1.98224609 -1 2 C-0.67 1.34 -0.34 0.68 0 0 Z " fill="#2491D6" transform="translate(369,137)"/>
<path d="M0 0 C0.495 0.99 0.495 0.99 1 2 C-0.3125 4.625 -0.3125 4.625 -2 7 C-2.66 7 -3.32 7 -4 7 C-4.268125 7.556875 -4.53625 8.11375 -4.8125 8.6875 C-7.76925409 14.44538954 -11.18810577 18.52894144 -16.0625 22.8125 C-17.90300202 24.89048615 -18.78747675 26.51134969 -19.9375 29 C-21.71076835 32.74663314 -23.63740204 34.51808246 -27 37 C-28.51264102 38.80076312 -29.95947992 40.63374182 -31.375 42.51171875 C-33 44 -33 44 -35.41796875 44.453125 C-38.76568468 45.16217225 -39.99650239 46.5894856 -42.3125 49.0625 C-43.00988281 49.79597656 -43.70726562 50.52945313 -44.42578125 51.28515625 C-44.94527344 51.85105469 -45.46476562 52.41695313 -46 53 C-46 50 -46 50 -43.48071289 47.171875 C-42.31861712 46.02385784 -41.14864915 44.88377717 -39.97265625 43.75 C-39.35031601 43.13664795 -38.72797577 42.5232959 -38.08677673 41.89135742 C-36.08565533 39.92031926 -34.07504812 37.95936468 -32.0625 36 C-23.52792844 27.67343576 -15.30327813 19.45130111 -8 10 C-7.1259751 8.91092896 -6.25013857 7.8233045 -5.37109375 6.73828125 C-4.41396484 5.53751953 -4.41396484 5.53751953 -3.4375 4.3125 C-2.77621094 3.48363281 -2.11492187 2.65476563 -1.43359375 1.80078125 C-0.96050781 1.20652344 -0.48742187 0.61226562 0 0 Z " fill="#3C98D1" transform="translate(311,233)"/>
<path d="M0 0 C0.96647964 0.00960754 1.93295929 0.01921509 2.9287262 0.02911377 C6.11027582 0.06198712 9.29168309 0.1023637 12.47314453 0.14282227 C14.68416854 0.16713478 16.89519776 0.19097777 19.10623169 0.21437073 C24.91607614 0.277099 30.72582797 0.34619744 36.5355835 0.41662598 C42.46785273 0.48741121 48.40018745 0.55216715 54.33251953 0.61743164 C65.96540401 0.74629885 77.59819955 0.88189634 89.23095703 1.02172852 C89.23095703 1.68172852 89.23095703 2.34172852 89.23095703 3.02172852 C88.02541168 3.01728729 86.81986633 3.01284607 85.57778931 3.00827026 C74.19061959 2.96764427 62.80346466 2.93770579 51.41623878 2.91810417 C45.56261793 2.90768788 39.70905581 2.89356808 33.85546875 2.87084961 C28.20149537 2.84904436 22.54757833 2.83714369 16.89356613 2.83197403 C14.74152109 2.82829205 12.58947896 2.82110218 10.43745804 2.8102684 C7.41234028 2.79565139 4.38745234 2.79375483 1.36230469 2.79467773 C0.48188507 2.78748718 -0.39853455 2.78029663 -1.30563354 2.77288818 C-8.95054819 2.7979598 -16.69628063 2.9594633 -22.76904297 8.02172852 C-21.30752368 4.1686322 -19.45626862 2.78154076 -15.76904297 1.02172852 C-10.50187591 -0.17238819 -5.36502086 -0.07681859 0 0 Z " fill="#F03A52" transform="translate(45.76904296875,134.978271484375)"/>
<path d="M0 0 C0.77601563 0.00644531 1.55203125 0.01289063 2.3515625 0.01953125 C4.375 0.1875 4.375 0.1875 6.375 1.1875 C8.45293032 1.26890878 10.53356542 1.28409473 12.61303711 1.26928711 C14.58034035 1.25949074 14.58034035 1.25949074 16.58738708 1.24949646 C17.64188962 1.24088498 17.64188962 1.24088498 18.71769524 1.23209953 C20.91560918 1.21473897 23.11345072 1.20441962 25.31141663 1.19618225 C31.56111509 1.17170144 37.81071604 1.1361386 44.06030273 1.09155273 C47.88160621 1.06478447 51.70285318 1.0477318 55.52423286 1.03668404 C56.98151297 1.03047051 58.43878196 1.02046052 59.89600945 1.00660515 C61.93313033 0.9874101 63.97036377 0.98155399 66.00756836 0.97631836 C67.16735703 0.96886093 68.32714569 0.9614035 69.52207947 0.95372009 C72.375 1.1875 72.375 1.1875 75.375 3.1875 C65.51764772 3.21065177 55.66030189 3.22842959 45.80292797 3.23931217 C41.22594939 3.24453478 36.64898938 3.25162118 32.07202148 3.26293945 C27.65650054 3.27379038 23.24099749 3.27978154 18.82546425 3.28237724 C17.1393334 3.2842275 15.45320355 3.28784049 13.76708031 3.29323006 C11.40874476 3.30046972 9.05048351 3.3014897 6.69213867 3.30102539 C5.99226837 3.30462067 5.29239807 3.30821594 4.57131958 3.31192017 C1.55210127 3.30547142 -0.73444692 3.15101769 -3.625 2.1875 C-9.67639501 5.59140969 -11.42873839 12.01705072 -13.625 18.1875 C-14.285 18.1875 -14.945 18.1875 -15.625 18.1875 C-15.14769162 16.7285574 -14.66808958 15.27036504 -14.1875 13.8125 C-13.92066406 13.00039062 -13.65382813 12.18828125 -13.37890625 11.3515625 C-12.625 9.1875 -12.625 9.1875 -11.625 7.1875 C-10.965 7.1875 -10.305 7.1875 -9.625 7.1875 C-9.5425 6.40375 -9.46 5.62 -9.375 4.8125 C-8.625 2.1875 -8.625 2.1875 -6.8671875 1.03515625 C-4.41185036 0.10691904 -2.61495005 -0.04810109 0 0 Z " fill="#1090D4" transform="translate(374.625,137.8125)"/>
<path d="M0 0 C0.33 0 0.66 0 1 0 C0.96281684 13.99525606 0.90266919 27.99025211 0.81609726 41.98529339 C0.77657003 48.48361415 0.74440713 54.98179833 0.72900391 61.48022461 C0.71387213 67.75031617 0.67948787 74.02003237 0.63169098 80.28995705 C0.61684135 82.68333488 0.60895694 85.07676629 0.60811615 87.47019005 C0.60575561 90.81997178 0.57874787 94.16870848 0.54589844 97.51831055 C0.55344398 99.00616562 0.55344398 99.00616562 0.56114197 100.52407837 C0.4947728 104.89183289 0.3921472 107.35191779 -1.90911865 111.15510559 C-4 113 -4 113 -6 113 C-4 109 -4 109 -2.94667149 107.11902332 C-1.92537618 104.83296252 -1.74308992 103.33397587 -1.72825623 100.84562683 C-1.71367874 99.61567238 -1.71367874 99.61567238 -1.69880676 98.36087036 C-1.69821762 97.4698764 -1.69762848 96.57888245 -1.69702148 95.66088867 C-1.68436249 94.24310371 -1.68436249 94.24310371 -1.67144775 92.79667664 C-1.64564809 89.67043557 -1.63352146 86.54428908 -1.62109375 83.41796875 C-1.60491699 81.24326329 -1.58773681 79.06856508 -1.56959534 76.89387512 C-1.52387751 71.16404585 -1.4890969 65.43420678 -1.45739746 59.70428467 C-1.40556716 50.54351805 -1.34019176 41.38285906 -1.26918221 32.22222328 C-1.24641471 29.02553362 -1.23009776 25.82885734 -1.21446228 22.63212585 C-1.20104757 20.66384742 -1.18743208 18.69557035 -1.17358398 16.72729492 C-1.16966393 15.39991302 -1.16966393 15.39991302 -1.16566467 14.04571533 C-1.1258372 9.26290055 -0.79792858 4.71765283 0 0 Z " fill="#EB2136" transform="translate(141,26)"/>
<path d="M0 0 C0.66 0 1.32 0 2 0 C0.31310164 4.02109493 -2.42221389 7.11813402 -5.25 10.375 C-5.79487061 11.0047876 -6.33974121 11.6345752 -6.90112305 12.28344727 C-15.75679389 22.32400663 -25.45490287 31.62197741 -35 41 C-35.495 39.515 -35.495 39.515 -36 38 C-35.01 37.34 -34.02 36.68 -33 36 C-32.67 35.01 -32.34 34.02 -32 33 C-31.01 33 -30.02 33 -29 33 C-29 32.01 -29 31.02 -29 30 C-27.13671875 28.3515625 -27.13671875 28.3515625 -24.6875 26.625 C-21.16669059 24.01189927 -19.02319399 21.93990408 -17 18 C-14.9375 15.6875 -14.9375 15.6875 -13 14 C-12.34 14 -11.68 14 -11 14 C-10.7525 13.2575 -10.505 12.515 -10.25 11.75 C-8.89534961 8.76976913 -7.4898459 7.10080748 -5 5 C-4.34 5 -3.68 5 -3 5 C-3 4.34 -3 3.68 -3 3 C-2.34 3 -1.68 3 -1 3 C-0.67 2.01 -0.34 1.02 0 0 Z " fill="#F24D52" transform="translate(288,225)"/>
<path d="M0 0 C1.32 0.33 2.64 0.66 4 1 C3.67 1.66 3.34 2.32 3 3 C3.14203354 3.54988586 3.28406708 4.09977173 3.43040466 4.6663208 C4.21611452 7.88543907 4.13075635 11.04666714 4.11352539 14.33886719 C4.11367142 15.07096909 4.11381744 15.80307098 4.1139679 16.55735779 C4.11327276 18.97056062 4.10549908 21.3836857 4.09765625 23.796875 C4.09579065 25.47267617 4.09436742 27.14847788 4.09336853 28.82427979 C4.08955452 33.23013826 4.07973376 37.63596366 4.06866455 42.04180908 C4.05842643 46.53958692 4.05386576 51.03737011 4.04882812 55.53515625 C4.0381105 64.35678535 4.02104747 73.17838992 4 82 C3.67 82 3.34 82 3 82 C2.99191315 81.18425003 2.98382629 80.36850006 2.97549438 79.5280304 C2.89748955 71.83290414 2.8101812 64.13796588 2.71247292 56.4430666 C2.66256927 52.48722642 2.61623885 48.53141218 2.578125 44.57543945 C2.54119704 40.75628956 2.49481699 36.93735982 2.44193649 33.11839867 C2.42343238 31.6628322 2.40830975 30.20721862 2.39665604 28.75158119 C2.37972496 26.70956602 2.35067472 24.66805064 2.31884766 22.6262207 C2.30552399 21.46484085 2.29220032 20.303461 2.2784729 19.10688782 C2.00013147 16.00146679 1.24041133 13.83360456 0 11 C-0.1953125 8.10546875 -0.1953125 8.10546875 -0.125 5.1875 C-0.10695312 4.21167969 -0.08890625 3.23585938 -0.0703125 2.23046875 C-0.04710937 1.49441406 -0.02390625 0.75835937 0 0 Z " fill="#2D8FD4" transform="translate(137,358)"/>
<path d="M0 0 C0.99 0.33 1.98 0.66 3 1 C2.67 1.99 2.34 2.98 2 4 C1.01 4 0.02 4 -1 4 C-1.25007813 4.59941406 -1.50015625 5.19882812 -1.7578125 5.81640625 C-3.17659889 8.31043641 -4.51824736 9.33224018 -6.875 10.9375 C-10.19779068 13.3031825 -12.51252287 15.7471453 -15 19 C-15.66 19 -16.32 19 -17 19 C-17.24492187 19.61359375 -17.48984375 20.2271875 -17.7421875 20.859375 C-19.25052285 23.42635567 -20.44256788 24.03857904 -23.125 25.25 C-23.84945312 25.58515625 -24.57390625 25.9203125 -25.3203125 26.265625 C-26.15175781 26.62914062 -26.15175781 26.62914062 -27 27 C-26.43362114 23.64453193 -25.5352042 22.22611275 -22.91015625 20.08984375 C-22.29076172 19.57486328 -21.67136719 19.05988281 -21.03320312 18.52929688 C-20.38287109 18.00400391 -19.73253906 17.47871094 -19.0625 16.9375 C-17.77975803 15.88751879 -16.49969745 14.83425116 -15.22265625 13.77734375 C-14.65297119 13.31577881 -14.08328613 12.85421387 -13.49633789 12.37866211 C-11.74616154 10.87496785 -11.74616154 10.87496785 -10 8 C-9.34 8 -8.68 8 -8 8 C-6.57607884 6.71904281 -5.20766179 5.37565088 -3.875 4 C-3.15054687 3.2575 -2.42609375 2.515 -1.6796875 1.75 C-1.12539063 1.1725 -0.57109375 0.595 0 0 Z " fill="#1C84BD" transform="translate(274,276)"/>
<path d="M0 0 C0.33 0 0.66 0 1 0 C1.05057965 7.51136408 1.08568257 15.02268449 1.10986328 22.53417969 C1.11994038 25.09116253 1.13360226 27.64813379 1.15087891 30.20507812 C1.17505217 33.87372692 1.18646585 37.54222379 1.1953125 41.2109375 C1.20563507 42.35992523 1.21595764 43.50891296 1.22659302 44.69271851 C1.22674408 45.7536673 1.22689514 46.81461609 1.22705078 47.90771484 C1.231492 48.84481293 1.23593323 49.78191101 1.24050903 50.74740601 C1 53 1 53 -1 55 C-2.32 55 -3.64 55 -5 55 C-5.33 56.98 -5.66 58.96 -6 61 C-7.98 61.495 -7.98 61.495 -10 62 C-9.40606618 60.70359622 -8.79942011 59.41301161 -8.1875 58.125 C-7.85105469 57.40570313 -7.51460938 56.68640625 -7.16796875 55.9453125 C-6 54 -6 54 -3 52 C0.69343418 42.32096247 -0.54352942 30.02520742 -0.375 19.8125 C-0.33674669 17.88735354 -0.2976909 15.96222286 -0.2578125 14.03710938 C-0.16261798 9.3582035 -0.07829995 4.67921785 0 0 Z " fill="#3385B8" transform="translate(342,392)"/>
<path d="M0 0 C0 3 0 3 -2.046875 5.15625 C-2.93890625 5.9296875 -3.8309375 6.703125 -4.75 7.5 C-5.63171875 8.2734375 -6.5134375 9.046875 -7.421875 9.84375 C-10 12 -10 12 -12.265625 13.53125 C-14.16476116 14.84909031 -14.16476116 14.84909031 -14.484375 16.953125 C-15.23012186 19.91351405 -16.870014 20.90590489 -19.25 22.75 C-20.01828125 23.36359375 -20.7865625 23.9771875 -21.578125 24.609375 C-24.35656022 26.20473458 -25.84992311 26.26765359 -29 26 C-29.99 26 -30.98 26 -32 26 C-31.28420776 25.45025513 -31.28420776 25.45025513 -30.55395508 24.8894043 C-14.73347717 13.09076231 -14.73347717 13.09076231 0 0 Z " fill="#4995C6" transform="translate(262,285)"/>
<path d="M0 0 C1.24546405 2.49092811 0.7767578 3.41080733 0 6 C-0.66 6 -1.32 6 -2 6 C-2.103125 6.86625 -2.20625 7.7325 -2.3125 8.625 C-3.04436287 12.21778135 -4.10560293 14.8669587 -6 18 C-6.99 18.33 -7.98 18.66 -9 19 C-9.33 19.99 -9.66 20.98 -10 22 C-10.66 22 -11.32 22 -12 22 C-12 22.99 -12 23.98 -12 25 C-12.66 25 -13.32 25 -14 25 C-14.22429687 25.68449219 -14.44859375 26.36898437 -14.6796875 27.07421875 C-16.34726301 30.76952662 -18.61155231 33.65484933 -21.125 36.8125 C-21.82689453 37.7087207 -21.82689453 37.7087207 -22.54296875 38.62304688 C-23.69005565 40.08616792 -24.84431234 41.54366297 -26 43 C-26 39.68381431 -25.65609254 39.16867555 -23.76171875 36.62109375 C-23.27630615 35.95561523 -22.79089355 35.29013672 -22.29077148 34.60449219 C-21.76169189 33.88938477 -21.2326123 33.17427734 -20.6875 32.4375 C-14.27753652 23.58596596 -8.58077496 14.38915805 -3 5 C-2.00031754 3.33314285 -1.00048235 1.66637716 0 0 Z " fill="#4FA0D3" transform="translate(341,188)"/>
<path d="M0 0 C-9.67872697 5.5543366 -19.44395383 10.84354042 -29.5 15.6875 C-30.87031372 16.35628174 -30.87031372 16.35628174 -32.26831055 17.03857422 C-33.11820557 17.44221191 -33.96810059 17.84584961 -34.84375 18.26171875 C-35.59849609 18.62225342 -36.35324219 18.98278809 -37.13085938 19.35424805 C-37.74767578 19.56734619 -38.36449219 19.78044434 -39 20 C-39.66 19.67 -40.32 19.34 -41 19 C-38.93243723 16.2027092 -37.85559629 15.97307727 -34.3125 15.3125 C-33.219375 15.209375 -32.12625 15.10625 -31 15 C-31 14.34 -31 13.68 -31 13 C-29.9790625 12.5978125 -29.9790625 12.5978125 -28.9375 12.1875 C-27.968125 11.795625 -26.99875 11.40375 -26 11 C-24.80375 10.525625 -23.6075 10.05125 -22.375 9.5625 C-19.11725117 8.29901018 -19.11725117 8.29901018 -17.55078125 6.5078125 C-15.73525894 4.74259434 -14.19428332 4.13245819 -11.8125 3.3125 C-11.09707031 3.06113281 -10.38164062 2.80976563 -9.64453125 2.55078125 C-8.83048828 2.27814453 -8.83048828 2.27814453 -8 2 C-8 1.34 -8 0.68 -8 0 C-4.90645403 -0.99435406 -3.09720845 -0.87840996 0 0 Z " fill="#D03B44" transform="translate(192,310)"/>
<path d="M0 0 C0.495 0.99 0.495 0.99 1 2 C-0.3125 4.625 -0.3125 4.625 -2 7 C-2.66 7 -3.32 7 -4 7 C-4.268125 7.556875 -4.53625 8.11375 -4.8125 8.6875 C-7.3203218 13.57115297 -10.10047942 17.17659709 -14 21 C-15.33061962 22.32823347 -16.65994482 23.65776441 -17.98828125 24.98828125 C-21.9921875 28.9921875 -25.99609375 32.99609375 -30 37 C-30.66 36.67 -31.32 36.34 -32 36 C-31.59273682 35.60321045 -31.18547363 35.2064209 -30.76586914 34.79760742 C-22.66199387 26.87435174 -14.95763982 18.96100693 -8 10 C-6.48108236 8.10263149 -4.96031922 6.20673855 -3.4375 4.3125 C-2.29103301 2.87550532 -1.1449484 1.43820494 0 0 Z " fill="#61ADDC" transform="translate(311,233)"/>
<path d="M0 0 C0.33 0 0.66 0 1 0 C1.71043892 4.8941348 1.98738006 7.5592945 -0.86328125 11.71875 C-9.99747964 21.88446998 -9.99747964 21.88446998 -15.25 22.1875 C-16.61125 22.0946875 -16.61125 22.0946875 -18 22 C-16.694761 19.38952199 -15.64173426 19.31933577 -12.9375 18.375 C-11.83728516 17.98441406 -11.83728516 17.98441406 -10.71484375 17.5859375 C-10.14894531 17.39257812 -9.58304687 17.19921875 -9 17 C-9 16.01 -9 15.02 -9 14 C-7.68 14 -6.36 14 -5 14 C-4.896875 13.0925 -4.79375 12.185 -4.6875 11.25 C-3.97939434 7.90259142 -3.0844864 6.605608 -1 4 C-0.29485154 1.85266073 -0.29485154 1.85266073 0 0 Z " fill="#3384C1" transform="translate(464,317)"/>
<path d="M0 0 C-2.75161795 3.48963469 -5.18757114 6.5489186 -9.62109375 7.65234375 C-11.364976 7.79661267 -13.11384362 7.89218041 -14.86328125 7.9296875 C-17.05378075 7.85290917 -17.05378075 7.85290917 -19 9 C-19.66 8.34 -20.32 7.68 -21 7 C-18.02380583 4.02380583 -14.42456111 3.18190761 -10.5 1.8125 C-9.71496094 1.52697266 -8.92992187 1.24144531 -8.12109375 0.94726562 C-6.99380859 0.54991211 -6.99380859 0.54991211 -5.84375 0.14453125 C-5.15474609 -0.09934326 -4.46574219 -0.34321777 -3.75585938 -0.59448242 C-2 -1 -2 -1 0 0 Z " fill="#0F70B7" transform="translate(160,353)"/>
<path d="M0 0 C0.99 0.33 1.98 0.66 3 1 C-18.23404255 17 -18.23404255 17 -23 17 C-23 16.34 -23 15.68 -23 15 C-22.34 15 -21.68 15 -21 15 C-21 14.01 -21 13.02 -21 12 C-19.35 11.67 -17.7 11.34 -16 11 C-16 10.01 -16 9.02 -16 8 C-14.1128125 7.5978125 -14.1128125 7.5978125 -12.1875 7.1875 C-8.88053003 6.36365836 -7.22118509 5.64426796 -5 3 C-2.5 1.25 -2.5 1.25 0 0 Z " fill="#CF3F47" transform="translate(220,289)"/>
<path d="M0 0 C-0.5 1.8125 -0.5 1.8125 -2 4 C-3.90651405 4.76385443 -5.81780717 5.51844532 -7.75390625 6.20385742 C-9.90604733 6.96669787 -12.02175783 7.79030343 -14.140625 8.640625 C-15.51041667 9.17708333 -16.88020833 9.71354167 -18.25 10.25 C-18.94351563 10.53101563 -19.63703125 10.81203125 -20.3515625 11.1015625 C-24.04083613 12.52921245 -26.23140391 13.20918631 -30 12 C-29.29391602 11.70754395 -28.58783203 11.41508789 -27.86035156 11.11376953 C-24.65627864 9.78567551 -21.45313167 8.45536247 -18.25 7.125 C-16.58324219 6.43470703 -16.58324219 6.43470703 -14.8828125 5.73046875 C-13.81289062 5.28574219 -12.74296875 4.84101563 -11.640625 4.3828125 C-10.16384277 3.77010498 -10.16384277 3.77010498 -8.65722656 3.14501953 C-7.00521274 2.43315396 -5.37119202 1.67567181 -3.77246094 0.85107422 C-2 0 -2 0 0 0 Z " fill="#528CC2" transform="translate(171,345)"/>
<path d="M0 0 C1.34882814 2.69765628 0.80338265 4.15164334 0 7 C-0.99 7.495 -0.99 7.495 -2 8 C-2.33 20.21 -2.66 32.42 -3 45 C-3.33 45 -3.66 45 -4 45 C-4.9140657 36.33073551 -5.09796147 27.83399406 -4.8125 19.125 C-4.79380859 17.94164062 -4.77511719 16.75828125 -4.75585938 15.5390625 C-4.55081853 9.15042157 -4.34061365 4.8538325 0 0 Z " fill="#DB2936" transform="translate(21,142)"/>
<path d="M0 0 C0.66 0.33 1.32 0.66 2 1 C0.8803014 2.00593243 -0.2459412 3.0045849 -1.375 4 C-2.31472656 4.8353125 -2.31472656 4.8353125 -3.2734375 5.6875 C-5 7 -5 7 -7 7 C-7.185625 7.5775 -7.37125 8.155 -7.5625 8.75 C-9.70551122 12.10427843 -12.48822563 13.17907996 -16 15 C-16.66 13.68 -17.32 12.36 -18 11 C-17.23538452 10.55346069 -17.23538452 10.55346069 -16.45532227 10.09790039 C-14.15678336 8.75435311 -11.85962753 7.40845882 -9.5625 6.0625 C-8.76005859 5.59392578 -7.95761719 5.12535156 -7.13085938 4.64257812 C-6.36708984 4.19462891 -5.60332031 3.74667969 -4.81640625 3.28515625 C-3.75595093 2.66459351 -3.75595093 2.66459351 -2.67407227 2.03149414 C-1.03106712 1.10809195 -1.03106712 1.10809195 0 0 Z " fill="#3083C0" transform="translate(219,318)"/>
<path d="M0 0 C0.33 -0.66 0.66 -1.32 1 -2 C1 -0.68 1 0.64 1 2 C-7.261959 5.62870159 -7.261959 5.62870159 -12 4 C-11.34 3.67 -10.68 3.34 -10 3 C-10.33 1.68 -10.66 0.36 -11 -1 C-6.98204891 -2.33931703 -3.77343218 -1.88671609 0 0 Z " fill="#D8091D" transform="translate(160,323)"/>
<path d="M0 0 C0.33 0 0.66 0 1 0 C1.22314035 2.70783832 1.42889462 5.41518024 1.625 8.125 C1.68945312 8.88554687 1.75390625 9.64609375 1.8203125 10.4296875 C2.14331622 15.11324142 1.85138316 18.57646619 0 23 C-0.33 23 -0.66 23 -1 23 C-1.2224897 20.10462723 -1.42843154 17.20965101 -1.625 14.3125 C-1.68945312 13.49587891 -1.75390625 12.67925781 -1.8203125 11.83789062 C-2.1098257 7.36853066 -2.1739622 4.07410474 0 0 Z " fill="#0F78C6" transform="translate(463,300)"/>
<path d="M0 0 C0.33 0 0.66 0 1 0 C1 11.22 1 22.44 1 34 C0.67 34 0.34 34 0 34 C-0.33 26.74 -0.66 19.48 -1 12 C-1.33 12 -1.66 12 -2 12 C-2.05395478 10.37536158 -2.09277195 8.75021459 -2.125 7.125 C-2.14820313 6.22007812 -2.17140625 5.31515625 -2.1953125 4.3828125 C-2 2 -2 2 0 0 Z " fill="#0A8DD6" transform="translate(464,157)"/>
<path d="M0 0 C0.99 0 1.98 0 3 0 C1.41467191 4.55564061 -0.99003081 8.31475769 -3.625 12.3125 C-4.04523438 12.95767578 -4.46546875 13.60285156 -4.8984375 14.26757812 C-5.92838241 15.84760724 -6.96365628 17.42416047 -8 19 C-9.04449911 15.86650268 -8.93423645 15.01031744 -8 12 C-7.34 12 -6.68 12 -6 12 C-6 11.01 -6 10.02 -6 9 C-5.34 9 -4.68 9 -4 9 C-2.47700477 6.06279492 -1.19899698 3.0831351 0 0 Z " fill="#EC3F44" transform="translate(318,180)"/>
<path d="M0 0 C0.33 0.66 0.66 1.32 1 2 C0.0925 1.773125 -0.815 1.54625 -1.75 1.3125 C-4.92417087 0.71188783 -4.92417087 0.71188783 -7.1875 2.125 C-11.32984114 6.41018049 -13.03727389 11.48567426 -15 17 C-15.66 17 -16.32 17 -17 17 C-16.52269162 15.5410574 -16.04308958 14.08286504 -15.5625 12.625 C-15.29566406 11.81289062 -15.02882813 11.00078125 -14.75390625 10.1640625 C-14 8 -14 8 -13 6 C-12.34 6 -11.68 6 -11 6 C-10.9175 5.21625 -10.835 4.4325 -10.75 3.625 C-10 1 -10 1 -8.3125 -0.375 C-5.2365367 -1.20634143 -3.05567411 -0.81484643 0 0 Z " fill="#1185D3" transform="translate(376,139)"/>
<path d="M0 0 C0.33 0 0.66 0 1 0 C1.02705729 1.77074917 1.04642195 3.54161711 1.0625 5.3125 C1.07410156 6.29863281 1.08570313 7.28476562 1.09765625 8.30078125 C1 11 1 11 0 14 C-1.32 14 -2.64 14 -4 14 C-4.33 15.98 -4.66 17.96 -5 20 C-6.32 20.33 -7.64 20.66 -9 21 C-8.40606618 19.70359622 -7.79942011 18.41301161 -7.1875 17.125 C-6.85105469 16.40570313 -6.51460938 15.68640625 -6.16796875 14.9453125 C-5 13 -5 13 -2 11 C-1.19907746 8.35308332 -1.19907746 8.35308332 -0.8125 5.375 C-0.65394531 4.37210937 -0.49539063 3.36921875 -0.33203125 2.3359375 C-0.22246094 1.56507813 -0.11289062 0.79421875 0 0 Z " fill="#0F7EB9" transform="translate(341,433)"/>
<path d="M0 0 C3 2 3 2 4 5.0625 C4.33 6.031875 4.66 7.00125 5 8 C5.99 8.33 6.98 8.66 8 9 C8 9.66 8 10.32 8 11 C8.66 11 9.32 11 10 11 C10 11.66 10 12.32 10 13 C7.875 13 7.875 13 5 12 C2.59127629 9.58575169 0.51213206 7.06405707 -1 4 C-0.6640625 1.73828125 -0.6640625 1.73828125 0 0 Z " fill="#4397C6" transform="translate(140,444)"/>
<path d="M0 0 C0 0.66 0 1.32 0 2 C-0.66 2 -1.32 2 -2 2 C-2.24492187 2.61359375 -2.48984375 3.2271875 -2.7421875 3.859375 C-4.25052285 6.42635567 -5.44256788 7.03857904 -8.125 8.25 C-8.84945312 8.58515625 -9.57390625 8.9203125 -10.3203125 9.265625 C-11.15175781 9.62914062 -11.15175781 9.62914062 -12 10 C-11.18937965 5.363647 -8.7310578 3.76098277 -5 1 C-2 0 -2 0 0 0 Z " fill="#117CBA" transform="translate(259,293)"/>
<path d="M0 0 C0.66 0.33 1.32 0.66 2 1 C-0.36292656 3.52588702 -1.66462511 4.88820837 -5 6 C-5.33 6.66 -5.66 7.32 -6 8 C-8.06640625 8.4140625 -8.06640625 8.4140625 -10.5625 8.625 C-11.80193359 8.73714844 -11.80193359 8.73714844 -13.06640625 8.8515625 C-14.02353516 8.92503906 -14.02353516 8.92503906 -15 9 C-11.94216092 6.59430669 -8.77542004 4.63810385 -5.375 2.75 C-4.41335937 2.20859375 -3.45171875 1.6671875 -2.4609375 1.109375 C-1.64882812 0.74328125 -0.83671875 0.3771875 0 0 Z " fill="#4487BA" transform="translate(199,330)"/>
<path d="M0 0 C0.62003906 0.18820312 1.24007812 0.37640625 1.87890625 0.5703125 C0.47675691 1.93950534 -0.94337848 3.29029959 -2.37109375 4.6328125 C-3.55445313 5.76396484 -3.55445313 5.76396484 -4.76171875 6.91796875 C-7.12109375 8.5703125 -7.12109375 8.5703125 -9.41796875 8.31640625 C-9.98 8.07019531 -10.54203125 7.82398438 -11.12109375 7.5703125 C-3.13705982 -0.63550015 -3.13705982 -0.63550015 0 0 Z " fill="#147BB8" transform="translate(223.12109375,318.4296875)"/>
<path d="M0 0 C0.66 0 1.32 0 2 0 C0.59601721 4.10110762 -1.37087038 6.98089159 -4.125 10.3125 C-4.84945313 11.19550781 -5.57390625 12.07851562 -6.3203125 12.98828125 C-7.15175781 13.98408203 -7.15175781 13.98408203 -8 15 C-8.33 14.01 -8.66 13.02 -9 12 C-8.34 11.01 -7.68 10.02 -7 9 C-6.34 9 -5.68 9 -5 9 C-4.67 7.02 -4.34 5.04 -4 3 C-3.01 2.67 -2.02 2.34 -1 2 C-0.67 1.34 -0.34 0.68 0 0 Z " fill="#EA4B53" transform="translate(300,209)"/>
<path d="M0 0 C2.4294516 3.6441774 2.16179575 5.71241272 2 10 C1.360625 10.12375 0.72125 10.2475 0.0625 10.375 C-0.618125 10.58125 -1.29875 10.7875 -2 11 C-2.33 11.66 -2.66 12.32 -3 13 C-3.31563182 7.73946963 -2.66590937 4.55426184 0 0 Z " fill="#2B92CE" transform="translate(345,180)"/>
<path d="M0 0 C-2.78556882 1.36698387 -5.57931328 2.71634538 -8.375 4.0625 C-9.1690625 4.45244141 -9.963125 4.84238281 -10.78125 5.24414062 C-11.54179687 5.60830078 -12.30234375 5.97246094 -13.0859375 6.34765625 C-14.1385376 6.85824585 -14.1385376 6.85824585 -15.21240234 7.37915039 C-15.80230957 7.58403076 -16.3922168 7.78891113 -17 8 C-17.66 7.67 -18.32 7.34 -19 7 C-16.93243723 4.2027092 -15.85559629 3.97307727 -12.3125 3.3125 C-11.219375 3.209375 -10.12625 3.10625 -9 3 C-9 2.34 -9 1.68 -9 1 C-5.47051709 -0.66670026 -3.71727674 -1.13583456 0 0 Z " fill="#CF464C" transform="translate(170,322)"/>
<path d="M0 0 C2.31 0 4.62 0 7 0 C7 1.32 7 2.64 7 4 C5.35 4 3.7 4 2 4 C1.67 4.99 1.34 5.98 1 7 C0.31292445 4.50935112 0 2.62113708 0 0 Z " fill="#DD0720" transform="translate(197,297)"/>
<path d="M0 0 C0 4.13122742 -1.4277594 5.81854452 -4 9 C-7.25 10.375 -7.25 10.375 -10 11 C-9.09066991 9.72390677 -8.17217147 8.45434447 -7.25 7.1875 C-6.73953125 6.47980469 -6.2290625 5.77210938 -5.703125 5.04296875 C-3.97517642 2.97022309 -2.21473524 1.52624146 0 0 Z " fill="#188ED3" transform="translate(302,248)"/>
<path d="M0 0 C0.33 0.99 0.66 1.98 1 3 C0.32453125 3.10957031 -0.3509375 3.21914062 -1.046875 3.33203125 C-1.93890625 3.49058594 -2.8309375 3.64914063 -3.75 3.8125 C-4.63171875 3.96332031 -5.5134375 4.11414063 -6.421875 4.26953125 C-9.1910911 5.05414248 -10.8259401 6.14595359 -13 8 C-11.53848071 4.14690368 -9.68722565 2.75981224 -6 1 C-2.6875 0.3125 -2.6875 0.3125 0 0 Z " fill="#E03D53" transform="translate(36,135)"/>
<path d="M0 0 C0 0.66 0 1.32 0 2 C-6.625 5 -6.625 5 -10 5 C-9.67 3.68 -9.34 2.36 -9 1 C-5.92677456 0.08941469 -3.19902639 -0.08886184 0 0 Z " fill="#DA353C" transform="translate(143,332)"/>
<path d="M0 0 C0.66 0.33 1.32 0.66 2 1 C0.73427767 2.15147661 -0.53777906 3.29599314 -1.8125 4.4375 C-2.52019531 5.07558594 -3.22789062 5.71367187 -3.95703125 6.37109375 C-6 8 -6 8 -9 9 C-8.67 7.35 -8.34 5.7 -8 4 C-6.68 4 -5.36 4 -4 4 C-4 3.34 -4 2.68 -4 2 C-2.125 0.9375 -2.125 0.9375 0 0 Z " fill="#D64A51" transform="translate(232,280)"/>
<path d="M0 0 C0 0.66 0 1.32 0 2 C-0.99 2 -1.98 2 -3 2 C-3 3.32 -3 4.64 -3 6 C-3.78375 6.28875 -4.5675 6.5775 -5.375 6.875 C-8.09671632 7.84912254 -8.09671632 7.84912254 -10 10 C-9.9375 7.8125 -9.9375 7.8125 -9 5 C-6.43314355 2.61372642 -3.61081552 0 0 0 Z " fill="#E03D4F" transform="translate(152,16)"/>
<path d="M0 0 C7.425 0.99 7.425 0.99 15 2 C15 2.66 15 3.32 15 4 C10.05 3.67 5.1 3.34 0 3 C0 2.01 0 1.02 0 0 Z " fill="#1D8DC9" transform="translate(150,455)"/>
<path d="M0 0 C0.99 0 1.98 0 3 0 C3.0825 1.11375 3.165 2.2275 3.25 3.375 C3.4975 4.57125 3.745 5.7675 4 7 C5.88370471 8.3169667 5.88370471 8.3169667 8 9 C8.99 10.485 8.99 10.485 10 12 C6.16129726 10.43608407 3.69027637 8.1265374 1 5 C0.1875 2.1875 0.1875 2.1875 0 0 Z " fill="#D63658" transform="translate(17,324)"/>
<path d="M0 0 C8.22689076 6.72478992 8.22689076 6.72478992 11 11 C10.67 11.99 10.34 12.98 10 14 C9.608125 13.278125 9.21625 12.55625 8.8125 11.8125 C7.06714219 8.88662876 7.06714219 8.88662876 4.4375 6.4375 C2.24539919 4.24539919 1.25980215 2.74602035 0 0 Z " fill="#EF4760" transform="translate(331,16)"/>
<path d="M0 0 C0.99 0.33 1.98 0.66 3 1 C1.2126038 2.33905267 -0.58004953 3.67109066 -2.375 5 C-3.37273437 5.7425 -4.37046875 6.485 -5.3984375 7.25 C-8 9 -8 9 -10 9 C-10 8.34 -10 7.68 -10 7 C-6.91180815 4.26474436 -3.69464986 1.84732493 0 0 Z " fill="#D9494F" transform="translate(220,289)"/>
<path d="M0 0 C1.32 0.33 2.64 0.66 4 1 C1.03 3.64 -1.94 6.28 -5 9 C-5.33 7.68 -5.66 6.36 -6 5 C-5.01 4.67 -4.02 4.34 -3 4 C-2.67 3.34 -2.34 2.68 -2 2 C-1.34 2 -0.68 2 0 2 C0 1.34 0 0.68 0 0 Z " fill="#E0454F" transform="translate(246,267)"/>
<path d="M0 0 C1.14266516 3.35897545 0.85911331 5.30450352 -0.3125 8.625 C-0.57675781 9.40101563 -0.84101563 10.17703125 -1.11328125 10.9765625 C-2 13 -2 13 -4 15 C-5.32830615 11.01508155 -4.23204404 9.59951452 -2.5625 5.8125 C-2.08941406 4.72582031 -1.61632812 3.63914063 -1.12890625 2.51953125 C-0.75636719 1.68808594 -0.38382812 0.85664063 0 0 Z " fill="#579AC7" transform="translate(362,143)"/>
<path d="M0 0 C0.66 0.99 1.32 1.98 2 3 C0.5023304 5.49824035 -1.01558218 7.86004673 -3 10 C-5.8125 10.4375 -5.8125 10.4375 -8 10 C-7.236875 9.278125 -6.47375 8.55625 -5.6875 7.8125 C-3.28866409 5.30209033 -1.64589779 3.03191698 0 0 Z " fill="#257EC2" transform="translate(263,284)"/>
<path d="M0 0 C0.33 0 0.66 0 1 0 C1.25 7.625 1.25 7.625 -1 11 C-1.66 11 -2.32 11 -3 11 C-2.88590407 9.54077307 -2.75834456 8.08259402 -2.625 6.625 C-2.55539062 5.81289062 -2.48578125 5.00078125 -2.4140625 4.1640625 C-2 2 -2 2 0 0 Z " fill="#F00C23" transform="translate(329,153)"/>
<path d="M0 0 C2.625 -0.1875 2.625 -0.1875 5 0 C3.7934375 1.11375 3.7934375 1.11375 2.5625 2.25 C0.23011409 4.75304829 -0.63534394 5.7180955 -1 9 C-1.66 9 -2.32 9 -3 9 C-2.5020163 5.26512223 -2.12508244 3.18762365 0 0 Z " fill="#3780B9" transform="translate(366,136)"/>
<path d="M0 0 C0.33 0.99 0.66 1.98 1 3 C-1.97 5.475 -1.97 5.475 -5 8 C-5 6.02 -5 4.04 -5 2 C-3.35 1.34 -1.7 0.68 0 0 Z " fill="#6EB3DD" transform="translate(342,445)"/>
<path d="M0 0 C1.32 0.33 2.64 0.66 4 1 C3.34 1.66 2.68 2.32 2 3 C1.75684344 5.66949409 1.75684344 5.66949409 1.875 8.625 C1.89304688 9.62789063 1.91109375 10.63078125 1.9296875 11.6640625 C1.95289063 12.43492187 1.97609375 13.20578125 2 14 C-0.28062828 10.57905758 -0.21925007 9.31812778 -0.125 5.3125 C-0.10695312 4.31863281 -0.08890625 3.32476562 -0.0703125 2.30078125 C-0.04710937 1.54152344 -0.02390625 0.78226562 0 0 Z " fill="#4881BA" transform="translate(137,358)"/>
<path d="M0 0 C1.24546405 2.49092811 0.7767578 3.41080733 0 6 C-0.66 6 -1.32 6 -2 6 C-2.33 7.98 -2.66 9.96 -3 12 C-3.99 12 -4.98 12 -6 12 C-4.43358249 7.69235185 -2.31663844 3.93828536 0 0 Z " fill="#46A3D1" transform="translate(341,188)"/>
<path d="M0 0 C0.99 0 1.98 0 3 0 C1.54955729 4.10958767 -0.51110752 7.43258745 -3 11 C-3.6875 9.1875 -3.6875 9.1875 -4 7 C-2.625 5.5 -2.625 5.5 -1 4 C-0.28552357 1.89667109 -0.28552357 1.89667109 0 0 Z " fill="#EB4A50" transform="translate(318,180)"/>
<path d="M0 0 C-1.2491742 3.45925163 -2.67527795 6.14693203 -5 9 C-5 6.36 -5 3.72 -5 1 C-2 0 -2 0 0 0 Z " fill="#DC3139" transform="translate(326,171)"/>
<path d="M0 0 C3.10011632 2.53645881 4.0575938 5.15184135 5 9 C4.625 11.375 4.625 11.375 4 13 C1.97944157 8.60748167 0.59104765 4.84659077 0 0 Z " fill="#4492BE" transform="translate(461,145)"/>
<path d="M0 0 C0.33 0.99 0.66 1.98 1 3 C-3.30769231 6.93846154 -3.30769231 6.93846154 -6.8125 7.25 C-7.534375 7.1675 -8.25625 7.085 -9 7 C-6.16569547 3.7457985 -4.31392226 2.4793247 0 2 C0 1.34 0 0.68 0 0 Z " fill="#4493CD" transform="translate(336,451)"/>
<path d="M0 0 C0.66 0 1.32 0 2 0 C0.33248852 3.94139078 -2.22710649 6.7892812 -5 10 C-5.33 9.01 -5.66 8.02 -6 7 C-5.67 6.34 -5.34 5.68 -5 5 C-4.34 5 -3.68 5 -3 5 C-3 4.34 -3 3.68 -3 3 C-2.34 3 -1.68 3 -1 3 C-0.67 2.01 -0.34 1.02 0 0 Z " fill="#ED5D66" transform="translate(288,225)"/>
<path d="M0 0 C0 4.0333534 -1.60879918 5.83517538 -4 9 C-4.66 9 -5.32 9 -6 9 C-6 7.68 -6 6.36 -6 5 C-5.34 5 -4.68 5 -4 5 C-4 4.34 -4 3.68 -4 3 C-2 1.375 -2 1.375 0 0 Z " fill="#E14850" transform="translate(308,199)"/>
<path d="M0 0 C0.66 0 1.32 0 2 0 C0.84414715 3.91211733 -0.35534962 6.8745041 -3 10 C-3 7.69 -3 5.38 -3 3 C-2.34 3 -1.68 3 -1 3 C-0.67 2.01 -0.34 1.02 0 0 Z " fill="#E53B49" transform="translate(329,161)"/>
<path d="M0 0 C0 0.66 0 1.32 0 2 C-1.24176695 2.70226141 -2.49385599 3.38629109 -3.75 4.0625 C-4.79414063 4.63677734 -4.79414063 4.63677734 -5.859375 5.22265625 C-8.36140628 6.1312406 -9.5332355 5.88336837 -12 5 C-10.37750059 4.16180842 -8.75191503 3.3295884 -7.125 2.5 C-6.22007812 2.0359375 -5.31515625 1.571875 -4.3828125 1.09375 C-2 0 -2 0 0 0 Z " fill="#538EBE" transform="translate(184,339)"/>
<path d="M0 0 C0.33 0 0.66 0 1 0 C1.125 5.75 1.125 5.75 0 8 C-0.66 8 -1.32 8 -2 8 C-2 8.66 -2 9.32 -2 10 C-2.66 10 -3.32 10 -4 10 C-2.8905928 6.51329166 -1.73662334 3.22515763 0 0 Z " fill="#4E9DD0" transform="translate(350,170)"/>
<path d="M0 0 C4.875 4.625 4.875 4.625 6 8 C4.35 7.67 2.7 7.34 1 7 C0.67 4.69 0.34 2.38 0 0 Z " fill="#F61337" transform="translate(331,18)"/>
<path d="M0 0 C0.66 0.33 1.32 0.66 2 1 C-1.465 3.97 -1.465 3.97 -5 7 C-5.66 6.67 -6.32 6.34 -7 6 C-3.375 1.125 -3.375 1.125 0 0 Z " fill="#117FBE" transform="translate(270,282)"/>
<path d="M0 0 C0.66 0.33 1.32 0.66 2 1 C1.34 3.31 0.68 5.62 0 8 C-1.32 8.33 -2.64 8.66 -4 9 C-2.68 6.03 -1.36 3.06 0 0 Z " fill="#288CD3" transform="translate(313,230)"/>
<path d="M0 0 C0.66 0 1.32 0 2 0 C1.38722388 2.96175123 0.74627478 4.38058783 -1 7 C-3.125 7.6875 -3.125 7.6875 -5 8 C-5 7.34 -5 6.68 -5 6 C-4.34 6 -3.68 6 -3 6 C-2.690625 5.195625 -2.38125 4.39125 -2.0625 3.5625 C-1 1 -1 1 0 0 Z " fill="#F3414B" transform="translate(280,233)"/>
<path d="M0 0 C1.39195915 4.17587745 -0.17676781 6.13474776 -2 10 C-2.33 10 -2.66 10 -3 10 C-3.36923077 3.47692308 -3.36923077 3.47692308 -1.5 1.0625 C-1.005 0.711875 -0.51 0.36125 0 0 Z " fill="#DD4953" transform="translate(340,139)"/>
<path d="M0 0 C0.66 0.33 1.32 0.66 2 1 C0.93106782 2.03590338 -0.15578488 3.05333942 -1.25 4.0625 C-2.15492188 4.91521484 -2.15492188 4.91521484 -3.078125 5.78515625 C-4.02945313 6.38650391 -4.02945313 6.38650391 -5 7 C-6.32 6.67 -7.64 6.34 -9 6 C-6.03 4.02 -3.06 2.04 0 0 Z " fill="#6299C6" transform="translate(219,318)"/>
<path d="M0 0 C0.66 0.33 1.32 0.66 2 1 C-0.25 3.5625 -0.25 3.5625 -3 6 C-4.32 5.67 -5.64 5.34 -7 5 C-4.69 3.35 -2.38 1.7 0 0 Z " fill="#508CC8" transform="translate(228,312)"/>
<path d="M0 0 C1.37780724 2.75561448 0.92023755 4.09771234 0 7 C-2.0625 8.8125 -2.0625 8.8125 -4 10 C-3.5205537 5.78087253 -2.83374881 3.20336822 0 0 Z " fill="#E64658" transform="translate(21,142)"/>
<path d="M0 0 C1.32 0.66 2.64 1.32 4 2 C1.6875 3.5625 1.6875 3.5625 -1 5 C-1.99 4.67 -2.98 4.34 -4 4 C-2.68 3.34 -1.36 2.68 0 2 C0 1.34 0 0.68 0 0 Z " fill="#0C7DC9" transform="translate(452,332)"/>
<path d="M0 0 C1.98 0 3.96 0 6 0 C5 3 5 3 2.9375 4.1875 C2.298125 4.455625 1.65875 4.72375 1 5 C0.67 3.35 0.34 1.7 0 0 Z " fill="#DE3542" transform="translate(204,297)"/>
<path d="M0 0 C0.66 0 1.32 0 2 0 C2.33 1.65 2.66 3.3 3 5 C2.01 5.66 1.02 6.32 0 7 C-1.125 2.25 -1.125 2.25 0 0 Z " fill="#028FE2" transform="translate(347,183)"/>
<path d="M0 0 C1.13643966 3.40931897 0.86747764 4.00335456 -0.4375 7.1875 C-0.72496094 7.90292969 -1.01242187 8.61835938 -1.30859375 9.35546875 C-1.53675781 9.89816406 -1.76492188 10.44085938 -2 11 C-2.66 11 -3.32 11 -4 11 C-3.52269162 9.5410574 -3.04308958 8.08286504 -2.5625 6.625 C-2.29566406 5.81289062 -2.02882813 5.00078125 -1.75390625 4.1640625 C-1 2 -1 2 0 0 Z " fill="#1A7FC0" transform="translate(363,145)"/>
<path d="M0 0 C-0.33 0.66 -0.66 1.32 -1 2 C-3.64 2 -6.28 2 -9 2 C-4.13793103 -1.24137931 -4.13793103 -1.24137931 0 0 Z " fill="#176BAD" transform="translate(154,356)"/>
</svg>
